<?xml version="1.0" encoding="UTF-8"?><svg id="Layer_2" xmlns="http://www.w3.org/2000/svg" viewBox="0 0 125 125"><defs><style>.cls-1{fill:#0f53ea;}.cls-2{fill:#fff;}</style></defs><g id="Layer_1-2"><rect class="cls-1" width="125" height="125"/><path class="cls-2" d="M95.03,41.99c-2.19-2.19-4.83-3.65-7.62-4.4-.74-2.79-2.21-5.43-4.4-7.62-4.41-4.41-10.63-5.88-16.25-4.44-1.52.39-2.59,1.74-2.59,3.31v5.01c.54.47.88,1.15.88,1.91,0,1.41-1.14,2.55-2.55,2.55s-2.55-1.14-2.55-2.55c0-.77.35-1.45.88-1.91v-5.01c0-1.57-1.07-2.92-2.59-3.31-5.63-1.45-11.84.03-16.25,4.44-2.19,2.19-3.65,4.83-4.4,7.62-2.79.75-5.43,2.21-7.62,4.4-5.56,5.56-6.46,14.01-2.7,20.51-1.45,2.5-2.28,5.4-2.28,8.5,0,7.86,5.34,14.47,12.59,16.41,1.94,7.25,8.55,12.59,16.41,12.59,1.52,0,2.99-.2,4.39-.57,1.45-.39,2.43-1.75,2.43-3.26v-5.02c-.54-.47-.88-1.15-.88-1.91,0-1.41,1.14-2.55,2.55-2.55s2.55,1.14,2.55,2.55c0,.77-.35,1.45-.88,1.91v5.02c0,1.51.98,2.87,2.43,3.26,1.4.38,2.87.57,4.4.57,7.86,0,14.48-5.34,16.41-12.59,2.79-.74,5.42-2.21,7.61-4.4,5.56-5.56,6.46-14.01,2.71-20.51,3.75-6.5,2.85-14.95-2.71-20.51ZM80.49,63.62l6.57,6.57c.37-.02.75.03,1.11.18,1.3.54,1.92,2.03,1.38,3.32-.54,1.3-2.03,1.92-3.33,1.38-1.03-.42-1.62-1.43-1.56-2.49l-5.57-5.57h-8.09v.58c0,.31-.05.59-.13.87l5.04,5.04s.1-.01.14-.01c1.41,0,2.55,1.14,2.55,2.55s-1.14,2.55-2.55,2.55-2.55-1.14-2.55-2.55c0-.04,0-.08,0-.12l-5.04-5.05c-.28.07-.56.13-.86.13h-.58v8.09l5.57,5.57c1.05-.05,2.07.54,2.49,1.56.54,1.3-.07,2.79-1.38,3.33-1.3.54-2.79-.08-3.33-1.38-.15-.37-.2-.74-.18-1.11l-6.57-6.57v-9.49h-2.24v9.49l-6.57,6.57c.02.37-.03.74-.18,1.11-.54,1.3-2.03,1.92-3.33,1.38-1.3-.54-1.92-2.03-1.38-3.33.43-1.03,1.44-1.62,2.49-1.56l5.58-5.57v-8.09h-.58c-.31,0-.59-.05-.87-.13l-5.04,5.04s.01.09.01.14c0,1.41-1.14,2.55-2.55,2.55s-2.55-1.14-2.55-2.55,1.14-2.55,2.55-2.55c.05,0,.09,0,.14.01l5.04-5.04c-.07-.28-.12-.56-.12-.87v-.58h-8.09l-5.57,5.57c.05,1.05-.54,2.07-1.56,2.49-1.3.54-2.79-.07-3.33-1.38-.54-1.3.07-2.79,1.38-3.32.36-.16.74-.2,1.11-.18l6.57-6.57h9.5v-2.24h-9.5l-6.57-6.57c-.37.02-.75-.03-1.11-.18-1.3-.54-1.92-2.03-1.38-3.33.54-1.3,2.03-1.92,3.33-1.38,1.02.43,1.61,1.44,1.56,2.49l5.58,5.58h8.09v-.58c0-.3.05-.59.12-.87l-5.04-5.04s-.09.01-.13.01c-1.41,0-2.55-1.14-2.55-2.55s1.14-2.55,2.55-2.55,2.55,1.14,2.55,2.55c0,.05-.01.09-.01.14l5.04,5.04c.29-.07.57-.13.88-.13h.58v-8.09l-5.57-5.58c-1.05.05-2.07-.53-2.49-1.56-.54-1.3.07-2.79,1.38-3.33,1.3-.54,2.79.07,3.32,1.38.16.36.2.74.18,1.11l6.57,6.57v9.5h2.24v-9.49l6.57-6.57c-.02-.37.03-.75.18-1.11.54-1.3,2.03-1.92,3.33-1.38,1.3.54,1.92,2.03,1.38,3.33-.43,1.03-1.44,1.61-2.49,1.56l-5.58,5.58v8.09h.58c.3,0,.59.05.87.13l5.04-5.04s-.01-.09-.01-.14c0-1.41,1.14-2.55,2.55-2.55s2.55,1.14,2.55,2.55-1.14,2.55-2.55,2.55c-.04,0-.08-.01-.13-.01l-5.04,5.04c.07.28.13.57.13.87v.58h8.09l5.57-5.58c-.05-1.05.54-2.06,1.56-2.49,1.3-.54,2.79.08,3.33,1.38.54,1.3-.08,2.79-1.38,3.33-.37.15-.74.2-1.11.18l-6.57,6.57h-9.49v2.24h9.49Z"/><rect class="cls-2" x="57.4" y="57.4" width="10.19" height="10.19" rx="2.04" ry="2.04"/></g></svg>