<?xml version="1.0" encoding="UTF-8"?><svg id="Layer_2" xmlns="http://www.w3.org/2000/svg" viewBox="0 0 236.18 75"><g id="Layer_1-2"><path d="M70.03,16.99c-2.19-2.19-4.83-3.65-7.62-4.4-.74-2.79-2.21-5.43-4.4-7.62C53.6.57,47.38-.91,41.76.54c-1.52.39-2.59,1.74-2.59,3.31v5.01c.54.47.88,1.15.88,1.91,0,1.41-1.14,2.55-2.55,2.55s-2.55-1.14-2.55-2.55c0-.77.35-1.45.88-1.91V3.84c0-1.57-1.07-2.92-2.59-3.31-5.63-1.45-11.84.03-16.25,4.44-2.19,2.19-3.65,4.83-4.4,7.62-2.79.75-5.43,2.21-7.62,4.4C-.58,22.55-1.48,31,2.28,37.5c-1.45,2.5-2.28,5.4-2.28,8.5,0,7.86,5.34,14.47,12.59,16.41,1.94,7.25,8.55,12.59,16.41,12.59,1.52,0,2.99-.2,4.39-.57,1.45-.39,2.43-1.75,2.43-3.26v-5.02c-.54-.47-.88-1.15-.88-1.91,0-1.41,1.14-2.55,2.55-2.55s2.55,1.14,2.55,2.55c0,.77-.35,1.45-.88,1.91v5.02c0,1.51.98,2.87,2.43,3.26,1.4.38,2.87.57,4.4.57,7.86,0,14.48-5.34,16.41-12.59,2.79-.74,5.42-2.21,7.61-4.4,5.56-5.56,6.46-14.01,2.71-20.51,3.75-6.5,2.85-14.95-2.71-20.51ZM55.49,38.62l6.57,6.57c.37-.02.75.03,1.11.18,1.3.54,1.92,2.03,1.38,3.32-.54,1.3-2.03,1.92-3.33,1.38-1.03-.42-1.62-1.43-1.56-2.49l-5.57-5.57h-8.09v.58c0,.31-.05.59-.13.87l5.04,5.04s.1-.01.14-.01c1.41,0,2.55,1.14,2.55,2.55s-1.14,2.55-2.55,2.55-2.55-1.14-2.55-2.55c0-.04,0-.08,0-.12l-5.04-5.05c-.28.07-.56.13-.86.13h-.58v8.09l5.57,5.57c1.05-.05,2.07.54,2.49,1.56.54,1.3-.07,2.79-1.38,3.33-1.3.54-2.79-.08-3.33-1.38-.15-.37-.2-.74-.18-1.11l-6.57-6.57v-9.49h-2.24v9.49l-6.57,6.57c.02.37-.03.74-.18,1.11-.54,1.3-2.03,1.92-3.33,1.38-1.3-.54-1.92-2.03-1.38-3.33.43-1.03,1.44-1.62,2.49-1.56l5.58-5.57v-8.09h-.58c-.31,0-.59-.05-.87-.13l-5.04,5.04s.01.09.01.14c0,1.41-1.14,2.55-2.55,2.55s-2.55-1.14-2.55-2.55,1.14-2.55,2.55-2.55c.05,0,.09,0,.14.01l5.04-5.04c-.07-.28-.12-.56-.12-.87v-.58h-8.09l-5.57,5.57c.05,1.05-.54,2.07-1.56,2.49-1.3.54-2.79-.07-3.33-1.38-.54-1.3.07-2.79,1.38-3.32.36-.16.74-.2,1.11-.18l6.57-6.57h9.5v-2.24h-9.5l-6.57-6.57c-.37.02-.75-.03-1.11-.18-1.3-.54-1.92-2.03-1.38-3.33.54-1.3,2.03-1.92,3.33-1.38,1.02.43,1.61,1.44,1.56,2.49l5.58,5.58h8.09v-.58c0-.3.05-.59.12-.87l-5.04-5.04s-.09.01-.13.01c-1.41,0-2.55-1.14-2.55-2.55s1.14-2.55,2.55-2.55,2.55,1.14,2.55,2.55c0,.05-.01.09-.01.14l5.04,5.04c.29-.07.57-.13.88-.13h.58v-8.09l-5.57-5.58c-1.05.05-2.07-.53-2.49-1.56-.54-1.3.07-2.79,1.38-3.33,1.3-.54,2.79.07,3.32,1.38.16.36.2.74.18,1.11l6.57,6.57v9.5h2.24v-9.49l6.57-6.57c-.02-.37.03-.75.18-1.11.54-1.3,2.03-1.92,3.33-1.38,1.3.54,1.92,2.03,1.38,3.33-.43,1.03-1.44,1.61-2.49,1.56l-5.58,5.58v8.09h.58c.3,0,.59.05.87.13l5.04-5.04s-.01-.09-.01-.14c0-1.41,1.14-2.55,2.55-2.55s2.55,1.14,2.55,2.55-1.14,2.55-2.55,2.55c-.04,0-.08-.01-.13-.01l-5.04,5.04c.07.28.13.57.13.87v.58h8.09l5.57-5.58c-.05-1.05.54-2.06,1.56-2.49,1.3-.54,2.79.08,3.33,1.38.54,1.3-.08,2.79-1.38,3.33-.37.15-.74.2-1.11.18l-6.57,6.57h-9.49v2.24h9.49Z"/><rect class="cls-1" x="32.4" y="32.4" width="10.19" height="10.19" rx="2.04" ry="2.04"/><path class="cls-1" d="M124.1,58.68s-1.56.42-4.38.42c-12.06,0-8.76-13.98-17.7-13.98h-1.8v13.56h-8.52V19.08h13.44c10.32,0,15.84,4.08,15.84,13.38,0,5.52-2.94,9.24-7.98,11.16,4.26,1.98,4.38,8.64,9.36,8.64.66,0,1.2-.12,1.2-.12l.54,6.54ZM104,39.12c5.1,0,8.58-2.34,8.58-6.6s-2.88-6.72-7.92-6.72h-4.44v13.32h3.78Z"/><path class="cls-1" d="M161.66,33.42l-7.86,1.2c0-3.66-2.22-8.58-8.16-8.58s-10.2,4.8-10.2,12.84c0,9.12,5.46,12.84,11.34,12.84,5.1,0,8.52-3.36,10.14-5.64l5.04,5.28c-1.74,2.52-6.6,7.74-15.42,7.74-11.76,0-19.68-7.68-19.68-20.22s7.8-20.22,18.66-20.22c11.88,0,16.14,8.4,16.14,14.76Z"/><path class="cls-1" d="M201.38,58.68h-8.1l-12.78-19.08c-1.56-2.4-3.6-5.82-4.56-7.38l-.36.18c.24.9.3,3.96.3,7.14l.06,19.14h-8.22V19.08h7.56l13.38,20.04c2.04,3.06,3.84,6.3,4.5,7.5l.36-.18c-.18-1.08-.36-4.08-.36-7.38l-.06-19.98h8.28v39.6Z"/><path class="cls-1" d="M236.18,51.66v7.02h-26.4V19.08h8.52v32.58h17.88Z"/></g></svg>